Normalized EMG Linear Envelopes
nRows=257
nColumns=4

endheader
time	 med_gas_r	  soleus_r	 tib_ant_r	
3.95867	  0.008270	  0.006768	  0.001763	
3.99194	  0.008105	  0.006732	  0.001744	
4.0252	  0.007978	  0.006711	  0.001715	
4.05847	  0.007897	  0.006688	  0.001678	
4.09173	  0.007898	  0.006674	  0.001644	
4.125	  0.007998	  0.006675	  0.001620	
4.15827	  0.008223	  0.006681	  0.001611	
4.19153	  0.008589	  0.006687	  0.001621	
4.2248	  0.009062	  0.006687	  0.001642	
4.25806	  0.009603	  0.006687	  0.001666	
4.29133	  0.010194	  0.006680	  0.001686	
4.3246	  0.010798	  0.006648	  0.001700	
4.35786	  0.011301	  0.006584	  0.001713	
4.39113	  0.011580	  0.006499	  0.001729	
4.4244	  0.011611	  0.006402	  0.001751	
4.45766	  0.011452	  0.006284	  0.001780	
4.49093	  0.011193	  0.006171	  0.001822	
4.52419	  0.010857	  0.006119	  0.001873	
4.55746	  0.010472	  0.006207	  0.001923	
4.59073	  0.010096	  0.006527	  0.001962	
4.62399	  0.009724	  0.007196	  0.001981	
4.65726	  0.009305	  0.008344	  0.001972	
4.69052	  0.008856	  0.010112	  0.001942	
4.72379	  0.008462	  0.012633	  0.001900	
4.75706	  0.008183	  0.015959	  0.001855	
4.79032	  0.008022	  0.019968	  0.001826	
4.82359	  0.007929	  0.024223	  0.001819	
4.85685	  0.007862	  0.027868	  0.001833	
4.89012	  0.007775	  0.029528	  0.001862	
4.92339	  0.007624	  0.028395	  0.001906	
4.95665	  0.007470	  0.025602	  0.001960	
4.98992	  0.007343	  0.022377	  0.002014	
5.02319	  0.007240	  0.019542	  0.002056	
5.05645	  0.007139	  0.017486	  0.002076	
5.08972	  0.007059	  0.016188	  0.002072	
5.12298	  0.007013	  0.015265	  0.002050	
5.15625	  0.007002	  0.014119	  0.002016	
5.18952	  0.007005	  0.012560	  0.001975	
5.22278	  0.007004	  0.010857	  0.001935	
5.25605	  0.006993	  0.009290	  0.001904	
5.28931	  0.006969	  0.008009	  0.001883	
5.32258	  0.006964	  0.007057	  0.001866	
5.35585	  0.007032	  0.006408	  0.001846	
5.38911	  0.007215	  0.006011	  0.001823	
5.42238	  0.007512	  0.005812	  0.001800	
5.45565	  0.007851	  0.005750	  0.001781	
5.48891	  0.008139	  0.005773	  0.001765	
5.52218	  0.008312	  0.005842	  0.001751	
5.55544	  0.008385	  0.005926	  0.001745	
5.58871	  0.008398	  0.006005	  0.001748	
5.62198	  0.008378	  0.006081	  0.001761	
5.65524	  0.008316	  0.006185	  0.001780	
5.68851	  0.008258	  0.006340	  0.001802	
5.72177	  0.008294	  0.006542	  0.001827	
5.75504	  0.008474	  0.006765	  0.001851	
5.78831	  0.008785	  0.006975	  0.001868	
5.82157	  0.009129	  0.007159	  0.001876	
5.85484	  0.009387	  0.007319	  0.001875	
5.8881	  0.009448	  0.007455	  0.001864	
5.92137	  0.009297	  0.007545	  0.001840	
5.95464	  0.008970	  0.007548	  0.001796	
5.9879	  0.008544	  0.007431	  0.001737	
6.02117	  0.008123	  0.007220	  0.001679	
6.05444	  0.007785	  0.006938	  0.001633	
6.0877	  0.007560	  0.006615	  0.001613	
6.12097	  0.007443	  0.006326	  0.001624	
6.15423	  0.007426	  0.006129	  0.001671	
6.1875	  0.007484	  0.006037	  0.001748	
6.22077	  0.007568	  0.006024	  0.001845	
6.25403	  0.007643	  0.006045	  0.001946	
6.2873	  0.007727	  0.006072	  0.002030	
6.32056	  0.007862	  0.006087	  0.002081	
6.35383	  0.008071	  0.006067	  0.002085	
6.3871	  0.008340	  0.006009	  0.002026	
6.42036	  0.008646	  0.005935	  0.001889	
6.45363	  0.008968	  0.005866	  0.001657	
6.4869	  0.009234	  0.005803	  0.001307	
6.52016	  0.009355	  0.005781	  0.000816	
6.55343	  0.009291	  0.005861	  0.000165	
6.58669	  0.009101	  0.006117	 -0.000644	
6.61996	  0.008893	  0.006624	 -0.001572	
6.65323	  0.008729	  0.007466	 -0.002513	
6.68649	  0.008574	  0.008730	 -0.003266	
6.71976	  0.008390	  0.010507	 -0.003505	
6.75302	  0.008220	  0.012882	 -0.002763	
6.78629	  0.008155	  0.015871	 -0.000408	
6.81956	  0.008269	  0.019327	  0.004324	
6.85282	  0.008624	  0.022873	  0.012259	
6.88609	  0.009297	  0.025776	  0.024132	
6.91935	  0.010366	  0.027701	  0.040355	
6.95262	  0.011873	  0.029368	  0.060667	
6.98589	  0.013768	  0.031432	  0.083666	
7.01915	  0.015869	  0.034037	  0.106687	
7.05242	  0.017916	  0.036840	  0.126785	
7.08569	  0.019723	  0.039468	  0.142537	
7.11895	  0.021223	  0.041884	  0.154842	
7.15222	  0.022393	  0.044239	  0.165624	
7.18548	  0.023259	  0.046645	  0.176380	
7.21875	  0.023946	  0.049318	  0.187428	
7.25202	  0.024532	  0.052168	  0.197868	
7.28528	  0.025044	  0.054926	  0.206031	
7.31855	  0.025520	  0.057056	  0.211402	
7.35181	  0.025940	  0.058411	  0.213901	
7.38508	  0.026243	  0.059221	  0.214291	
7.41835	  0.026445	  0.059537	  0.214021	
7.45161	  0.026529	  0.059443	  0.213237	
7.48488	  0.026441	  0.058864	  0.211874	
7.51815	  0.026168	  0.057906	  0.210798	
7.55141	  0.025828	  0.056807	  0.209473	
7.58468	  0.025538	  0.055770	  0.207112	
7.61794	  0.025384	  0.054996	  0.203835	
7.65121	  0.025392	  0.054485	  0.199615	
7.68448	  0.025601	  0.054181	  0.194354	
7.71774	  0.025960	  0.053952	  0.188005	
7.75101	  0.026416	  0.054006	  0.181987	
7.78427	  0.026928	  0.054539	  0.177576	
7.81754	  0.027389	  0.055390	  0.174603	
7.85081	  0.027624	  0.056340	  0.172870	
7.88407	  0.027513	  0.057210	  0.171218	
7.91734	  0.026969	  0.057837	  0.168641	
7.9506	  0.026081	  0.058286	  0.165280	
7.98387	  0.024988	  0.058219	  0.161484	
8.01714	  0.023826	  0.057259	  0.158147	
8.0504	  0.022665	  0.055378	  0.156029	
8.08367	  0.021512	  0.052829	  0.155269	
8.11694	  0.020403	  0.049925	  0.155722	
8.1502	  0.019448	  0.047014	  0.156640	
8.18347	  0.018752	  0.044812	  0.158457	
8.21673	  0.018390	  0.043840	  0.162147	
8.25	  0.018270	  0.044052	  0.167238	
8.28327	  0.018262	  0.045152	  0.171938	
8.31653	  0.018396	  0.046983	  0.175276	
8.3498	  0.018751	  0.049141	  0.177068	
8.38306	  0.019351	  0.051406	  0.177439	
8.41633	  0.020145	  0.054102	  0.176433	
8.4496	  0.021052	  0.057210	  0.174381	
8.48286	  0.021988	  0.060506	  0.171380	
8.51613	  0.022881	  0.063713	  0.167992	
8.5494	  0.023624	  0.066184	  0.166055	
8.58266	  0.024055	  0.066878	  0.166372	
8.61593	  0.024153	  0.065423	  0.169306	
8.64919	  0.024105	  0.062814	  0.174684	
8.68246	  0.024036	  0.060007	  0.180989	
8.71573	  0.023986	  0.057432	  0.186077	
8.74899	  0.023918	  0.054955	  0.188711	
8.78226	  0.023735	  0.052366	  0.188872	
8.81552	  0.023379	  0.049960	  0.186397	
8.84879	  0.022869	  0.048021	  0.181782	
8.88206	  0.022251	  0.046432	  0.176129	
8.91532	  0.021661	  0.045294	  0.170863	
8.94859	  0.021202	  0.044774	  0.167141	
8.98185	  0.020882	  0.044685	  0.164866	
9.01512	  0.020623	  0.044629	  0.163891	
9.04839	  0.020401	  0.044330	  0.163474	
9.08165	  0.020240	  0.043700	  0.162937	
9.11492	  0.020145	  0.042817	  0.162228	
9.14819	  0.020092	  0.042034	  0.161098	
9.18145	  0.020055	  0.041767	  0.159857	
9.21472	  0.020027	  0.042170	  0.159290	
9.24798	  0.019965	  0.043164	  0.159264	
9.28125	  0.019805	  0.044474	  0.159524	
9.31452	  0.019611	  0.045705	  0.160401	
9.34778	  0.019492	  0.046448	  0.161312	
9.38105	  0.019500	  0.046685	  0.161395	
9.41431	  0.019653	  0.046422	  0.160714	
9.44758	  0.019953	  0.045727	  0.160143	
9.48085	  0.020377	  0.045065	  0.160797	
9.51411	  0.020859	  0.044629	  0.163256	
9.54738	  0.021292	  0.044259	  0.167782	
9.58065	  0.021598	  0.043924	  0.173909	
9.61391	  0.021718	  0.043738	  0.180791	
9.64718	  0.021634	  0.043729	  0.187603	
9.68044	  0.021398	  0.043841	  0.194008	
9.71371	  0.021095	  0.044029	  0.199413	
9.74698	  0.020817	  0.044278	  0.203125	
9.78024	  0.020643	  0.044749	  0.204334	
9.81351	  0.020576	  0.045596	  0.203073	
9.84677	  0.020569	  0.046805	  0.199441	
9.88004	  0.020580	  0.048114	  0.193245	
9.91331	  0.020524	  0.049106	  0.185434	
9.94657	  0.020416	  0.049509	  0.177335	
9.97984	  0.020332	  0.049433	  0.169981	
10.0131	  0.020272	  0.049079	  0.163719	
10.0464	  0.020260	  0.048578	  0.159276	
10.0796	  0.020309	  0.048020	  0.156735	
10.1129	  0.020447	  0.047545	  0.156333	
10.1462	  0.020637	  0.047115	  0.157935	
10.1794	  0.020807	  0.046602	  0.160316	
10.2127	  0.020923	  0.045972	  0.162432	
10.246	  0.021007	  0.045350	  0.164437	
10.2792	  0.021099	  0.044819	  0.167220	
10.3125	  0.021302	  0.044560	  0.170606	
10.3458	  0.021651	  0.044607	  0.173785	
10.379	  0.022093	  0.044883	  0.176139	
10.4123	  0.022525	  0.045323	  0.177075	
10.4456	  0.022828	  0.045925	  0.177565	
10.4788	  0.022870	  0.046576	  0.178251	
10.5121	  0.022609	  0.046922	  0.178563	
10.5454	  0.022131	  0.046919	  0.178525	
10.5786	  0.021534	  0.046822	  0.177876	
10.6119	  0.020908	  0.046724	  0.176038	
10.6452	  0.020390	  0.046581	  0.172982	
10.6784	  0.020031	  0.046482	  0.169472	
10.7117	  0.019808	  0.046322	  0.166612	
10.745	  0.019662	  0.046132	  0.164976	
10.7782	  0.019584	  0.046065	  0.164194	
10.8115	  0.019648	  0.045973	  0.164797	
10.8448	  0.019937	  0.045733	  0.167987	
10.878	  0.020394	  0.045331	  0.173118	
10.9113	  0.020846	  0.044607	  0.178863	
10.9446	  0.021206	  0.043788	  0.184623	
10.9778	  0.021482	  0.043293	  0.189194	
11.0111	  0.021606	  0.043338	  0.190519	
11.0444	  0.021553	  0.044001	  0.188688	
11.0776	  0.021397	  0.045272	  0.183624	
11.1109	  0.021194	  0.046852	  0.174898	
11.1442	  0.020915	  0.048195	  0.163927	
11.1774	  0.020521	  0.049092	  0.151869	
11.2107	  0.019983	  0.049443	  0.138248	
11.244	  0.019318	  0.049015	  0.122363	
11.2772	  0.018517	  0.047442	  0.103976	
11.3105	  0.017616	  0.044753	  0.083753	
11.3437	  0.016773	  0.041879	  0.063468	
11.377	  0.016031	  0.039576	  0.045134	
11.4103	  0.015382	  0.038057	  0.030029	
11.4435	  0.014794	  0.037231	  0.018537	
11.4768	  0.014273	  0.036823	  0.010457	
11.5101	  0.013852	  0.035863	  0.005257	
11.5433	  0.013520	  0.033352	  0.002269	
11.5766	  0.013279	  0.029570	  0.000857	
11.6099	  0.013081	  0.025444	  0.000469	
11.6431	  0.012886	  0.022028	  0.000670	
11.6764	  0.012643	  0.019974	  0.001145	
11.7097	  0.012261	  0.019483	  0.001662	
11.7429	  0.011723	  0.020354	  0.002091	
11.7762	  0.011064	  0.022023	  0.002396	
11.8095	  0.010331	  0.023545	  0.002574	
11.8427	  0.009596	  0.023638	  0.002648	
11.876	  0.008927	  0.021913	  0.002641	
11.9093	  0.008395	  0.019137	  0.002580	
11.9425	  0.008053	  0.016050	  0.002501	
11.9758	  0.007874	  0.013157	  0.002433	
12.0091	  0.007790	  0.010728	  0.002382	
12.0423	  0.007728	  0.008851	  0.002338	
12.0756	  0.007656	  0.007521	  0.002300	
12.1089	  0.007590	  0.006685	  0.002267	
12.1421	  0.007544	  0.006251	  0.002235	
12.1754	  0.007528	  0.006123	  0.002204	
12.2087	  0.007545	  0.006205	  0.002163	
12.2419	  0.007583	  0.006418	  0.002108	
12.2752	  0.007597	  0.006692	  0.002049	
12.3085	  0.007582	  0.006970	  0.001995	
12.3417	  0.007562	  0.007200	  0.001950	
12.375	  0.007573	  0.007335	  0.001915	
12.4083	  0.007621	  0.007362	  0.001901	
12.4415	  0.007672	  0.007284	  0.001919	
12.4748	  0.007691	  0.007146	  0.001988	
